<svg width="31" height="22" viewBox="0 0 31 22" fill="none" xmlns="http://www.w3.org/2000/svg">
<path fill-rule="evenodd" clip-rule="evenodd" d="M0 0H30.8V22H0V0Z" fill="url(#paint0_linear_37_103)"/>
<path fill-rule="evenodd" clip-rule="evenodd" d="M0 0H30.8V5.86667H0V0Z" fill="url(#paint1_linear_37_103)"/>
<path fill-rule="evenodd" clip-rule="evenodd" d="M0 16.1333H30.8V22H0V16.1333Z" fill="url(#paint2_linear_37_103)"/>
<path fill-rule="evenodd" clip-rule="evenodd" d="M0 5.8667H30.8V16.1334H0V5.8667Z" fill="url(#paint3_linear_37_103)"/>
<mask id="mask0_37_103" style="mask-type:luminance" maskUnits="userSpaceOnUse" x="11" y="7" width="9" height="8">
<path d="M15.4001 14.6667C17.4251 14.6667 19.0667 13.0251 19.0667 11C19.0667 8.975 17.4251 7.33337 15.4001 7.33337C13.375 7.33337 11.7334 8.975 11.7334 11C11.7334 13.0251 13.375 14.6667 15.4001 14.6667Z" fill="white"/>
</mask>
<g mask="url(#mask0_37_103)">
<path fill-rule="evenodd" clip-rule="evenodd" d="M11.7334 7.33337H19.0667V11H11.7334V7.33337Z" fill="url(#paint4_linear_37_103)"/>
</g>
<mask id="mask1_37_103" style="mask-type:luminance" maskUnits="userSpaceOnUse" x="11" y="7" width="9" height="8">
<path d="M15.4001 14.6667C17.4251 14.6667 19.0667 13.0251 19.0667 11C19.0667 8.975 17.4251 7.33337 15.4001 7.33337C13.375 7.33337 11.7334 8.975 11.7334 11C11.7334 13.0251 13.375 14.6667 15.4001 14.6667Z" fill="white"/>
</mask>
<g mask="url(#mask1_37_103)">
<path fill-rule="evenodd" clip-rule="evenodd" d="M13.2002 9.53345H17.6002L16.8669 11.0001H13.9335L13.2002 9.53345Z" fill="white"/>
</g>
<mask id="mask2_37_103" style="mask-type:luminance" maskUnits="userSpaceOnUse" x="11" y="7" width="9" height="8">
<path d="M15.4001 14.6667C17.4251 14.6667 19.0667 13.0251 19.0667 11C19.0667 8.975 17.4251 7.33337 15.4001 7.33337C13.375 7.33337 11.7334 8.975 11.7334 11C11.7334 13.0251 13.375 14.6667 15.4001 14.6667Z" fill="white"/>
</mask>
<g mask="url(#mask2_37_103)">
<path fill-rule="evenodd" clip-rule="evenodd" d="M14.6669 7.33337H16.1335V9.5265C16.1335 9.93531 15.7934 10.2667 15.4002 10.2667C14.9952 10.2667 14.6669 9.95279 14.6669 9.5265V7.33337ZM13.2002 8.80004C13.2002 8.80004 14.3002 11 15.4002 11C16.5002 11 17.6002 8.80004 17.6002 8.80004V10.2667C17.6002 11.0767 16.951 11.7334 16.1351 11.7334H14.6653C13.8562 11.7334 13.2002 11.0824 13.2002 10.2667V8.80004Z" fill="url(#paint5_linear_37_103)"/>
</g>
<mask id="mask3_37_103" style="mask-type:luminance" maskUnits="userSpaceOnUse" x="11" y="7" width="9" height="8">
<path d="M15.4001 14.6667C17.4251 14.6667 19.0667 13.0251 19.0667 11C19.0667 8.975 17.4251 7.33337 15.4001 7.33337C13.375 7.33337 11.7334 8.975 11.7334 11C11.7334 13.0251 13.375 14.6667 15.4001 14.6667Z" fill="white"/>
</mask>
<g mask="url(#mask3_37_103)">
<path fill-rule="evenodd" clip-rule="evenodd" d="M11.7334 11.7334H19.0667V14.6667H11.7334V11.7334Z" fill="url(#paint6_linear_37_103)"/>
</g>
<mask id="mask4_37_103" style="mask-type:luminance" maskUnits="userSpaceOnUse" x="11" y="7" width="9" height="8">
<path d="M15.4001 14.6667C17.4251 14.6667 19.0667 13.0251 19.0667 11C19.0667 8.975 17.4251 7.33337 15.4001 7.33337C13.375 7.33337 11.7334 8.975 11.7334 11C11.7334 13.0251 13.375 14.6667 15.4001 14.6667Z" fill="white"/>
</mask>
<g mask="url(#mask4_37_103)">
<path fill-rule="evenodd" clip-rule="evenodd" d="M11.7334 12.4667H19.0667V13.2H11.7334V12.4667Z" fill="white"/>
</g>
<defs>
<linearGradient id="paint0_linear_37_103" x1="323.4" y1="0" x2="323.4" y2="330" gradientUnits="userSpaceOnUse">
<stop stop-color="white"/>
<stop offset="1" stop-color="#F0F0F0"/>
</linearGradient>
<linearGradient id="paint1_linear_37_103" x1="323.4" y1="0" x2="323.4" y2="88" gradientUnits="userSpaceOnUse">
<stop stop-color="#E02639"/>
<stop offset="1" stop-color="#CA1A2C"/>
</linearGradient>
<linearGradient id="paint2_linear_37_103" x1="323.4" y1="16.1333" x2="323.4" y2="104.133" gradientUnits="userSpaceOnUse">
<stop stop-color="#DC2235"/>
<stop offset="1" stop-color="#CA1A2C"/>
</linearGradient>
<linearGradient id="paint3_linear_37_103" x1="323.4" y1="5.8667" x2="323.4" y2="159.867" gradientUnits="userSpaceOnUse">
<stop stop-color="white"/>
<stop offset="1" stop-color="#F0F0F0"/>
</linearGradient>
<linearGradient id="paint4_linear_37_103" x1="88.7334" y1="7.33337" x2="88.7334" y2="62.3334" gradientUnits="userSpaceOnUse">
<stop stop-color="#FFA135"/>
<stop offset="1" stop-color="#FD9C2D"/>
</linearGradient>
<linearGradient id="paint5_linear_37_103" x1="59.4002" y1="7.33337" x2="59.4002" y2="73.3334" gradientUnits="userSpaceOnUse">
<stop stop-color="#DF2034"/>
<stop offset="1" stop-color="#CA1A2C"/>
</linearGradient>
<linearGradient id="paint6_linear_37_103" x1="88.7334" y1="11.7334" x2="88.7334" y2="55.7334" gradientUnits="userSpaceOnUse">
<stop stop-color="#0B4BAD"/>
<stop offset="1" stop-color="#08429A"/>
</linearGradient>
</defs>
</svg>
