<svg width="31" height="22" viewBox="0 0 31 22" fill="none" xmlns="http://www.w3.org/2000/svg">
<path fill-rule="evenodd" clip-rule="evenodd" d="M0 0H30.8V22H0V0Z" fill="url(#paint0_linear_30_330)"/>
<path d="M15.3999 16.1334C18.235 16.1334 20.5333 13.8351 20.5333 11C20.5333 8.16497 18.235 5.8667 15.3999 5.8667C12.5649 5.8667 10.2666 8.16497 10.2666 11C10.2666 13.8351 12.5649 16.1334 15.3999 16.1334Z" fill="url(#paint1_linear_30_330)"/>
<mask id="mask0_30_330" style="mask-type:luminance" maskUnits="userSpaceOnUse" x="10" y="5" width="11" height="12">
<path d="M15.3999 16.1334C18.235 16.1334 20.5333 13.8351 20.5333 11C20.5333 8.16497 18.235 5.8667 15.3999 5.8667C12.5649 5.8667 10.2666 8.16497 10.2666 11C10.2666 13.8351 12.5649 16.1334 15.3999 16.1334Z" fill="white"/>
</mask>
<g mask="url(#mask0_30_330)">
<path fill-rule="evenodd" clip-rule="evenodd" d="M10.2661 11.7333C11.7328 13.1083 13.9328 13.9333 15.3994 11.7333C16.8661 9.53325 19.7994 9.53325 20.5328 11.7333C21.2661 13.9333 20.5328 16.1333 20.5328 16.1333H10.2661C10.2661 16.1333 8.79944 10.3583 10.2661 11.7333Z" fill="url(#paint2_linear_30_330)"/>
</g>
<path opacity="0.75" fill-rule="evenodd" clip-rule="evenodd" d="M20.838 5.75294C20.7344 5.57351 20.7863 5.34957 20.9709 5.243L21.6 4.87977C21.7771 4.77757 22.0041 4.83944 22.1081 5.0196L23.933 8.18035C24.0366 8.35978 23.9846 8.58371 23.8 8.69028L23.1709 9.05351C22.9939 9.15572 22.7668 9.09384 22.6628 8.91368L20.838 5.75294ZM22.7432 4.65294C22.6396 4.47351 22.6916 4.24957 22.8762 4.143L23.5053 3.77977C23.6823 3.67757 23.9094 3.73944 24.0134 3.9196L25.8382 7.08035C25.9418 7.25978 25.8899 7.48371 25.7053 7.59028L25.0762 7.95352C24.8991 8.05572 24.6721 7.99384 24.5681 7.81368L22.7432 4.65294ZM4.96083 14.9196C4.85723 14.7402 4.90919 14.5162 5.09377 14.4097L5.72291 14.0464C5.89993 13.9442 6.12698 14.0061 6.231 14.1863L8.05586 17.347C8.15945 17.5264 8.1075 17.7504 7.92291 17.857L7.29377 18.2202C7.11676 18.3224 6.8897 18.2605 6.78568 18.0804L4.96083 14.9196ZM6.86608 13.8196C6.76249 13.6402 6.81444 13.4162 6.99903 13.3097L7.62816 12.9464C7.80518 12.8442 8.03224 12.9061 8.13625 13.0863L9.96111 16.247C10.0647 16.4264 10.0128 16.6504 9.82816 16.757L9.19903 17.1202C9.02201 17.2224 8.79496 17.1605 8.69094 16.9804L6.86608 13.8196ZM22.6628 13.0863C22.7664 12.9068 22.9863 12.8399 23.1709 12.9464L23.8 13.3097C23.9771 13.4119 24.037 13.6394 23.933 13.8196L22.1081 16.9804C22.0045 17.1598 21.7846 17.2268 21.6 17.1202L20.9709 16.757C20.7939 16.6547 20.7339 16.4272 20.838 16.247L22.6628 13.0863ZM24.5681 14.1863C24.6717 14.0068 24.8916 13.9399 25.0762 14.0464L25.7053 14.4097C25.8823 14.5119 25.9423 14.7394 25.8382 14.9196L24.0134 18.0804C23.9098 18.2598 23.6899 18.3268 23.5053 18.2202L22.8762 17.857C22.6991 17.7548 22.6392 17.5272 22.7432 17.347L24.5681 14.1863ZM6.78568 3.9196C6.88928 3.74018 7.10919 3.6732 7.29377 3.77977L7.92291 4.143C8.09993 4.2452 8.15987 4.47278 8.05586 4.65294L6.231 7.81368C6.1274 7.99311 5.9075 8.06009 5.72291 7.95352L5.09377 7.59028C4.91676 7.48808 4.85681 7.26051 4.96083 7.08035L6.78568 3.9196ZM8.69094 5.0196C8.79453 4.84018 9.01444 4.7732 9.19903 4.87977L9.82816 5.243C10.0052 5.3452 10.0651 5.57278 9.96111 5.75294L8.13625 8.91368C8.03266 9.09311 7.81275 9.16009 7.62816 9.05351L6.99903 8.69028C6.82201 8.58808 6.76207 8.36051 6.86608 8.18035L8.69094 5.0196Z" fill="url(#paint3_linear_30_330)"/>
<path fill-rule="evenodd" clip-rule="evenodd" d="M0 0H30.8V22H0V0Z" fill="url(#paint4_linear_30_330)"/>
<path fill-rule="evenodd" clip-rule="evenodd" d="M14.667 0H30.8003V22H14.667V0Z" fill="url(#paint5_linear_30_330)"/>
<path fill-rule="evenodd" clip-rule="evenodd" d="M0 0H10.2667V22H0V0Z" fill="url(#paint6_linear_30_330)"/>
<path fill-rule="evenodd" clip-rule="evenodd" d="M10.2666 0H20.5333V22H10.2666V0Z" fill="url(#paint7_linear_30_330)"/>
<defs>
<linearGradient id="paint0_linear_30_330" x1="1540" y1="0" x2="1540" y2="2200" gradientUnits="userSpaceOnUse">
<stop stop-color="white"/>
<stop offset="1" stop-color="#F0F0F0"/>
</linearGradient>
<linearGradient id="paint1_linear_30_330" x1="523.6" y1="5.8667" x2="523.6" y2="1032.53" gradientUnits="userSpaceOnUse">
<stop stop-color="#E01B41"/>
<stop offset="1" stop-color="#C51335"/>
</linearGradient>
<linearGradient id="paint2_linear_30_330" x1="571.836" y1="10.0833" x2="571.836" y2="615.083" gradientUnits="userSpaceOnUse">
<stop stop-color="#0E4B9C"/>
<stop offset="1" stop-color="#053677"/>
</linearGradient>
<linearGradient id="paint3_linear_30_330" x1="1054.04" y1="3.72876" x2="1054.04" y2="1457.97" gradientUnits="userSpaceOnUse">
<stop stop-color="#333333"/>
<stop offset="1" stop-color="#0D0D0D"/>
</linearGradient>
<linearGradient id="paint4_linear_30_330" x1="323.4" y1="0" x2="323.4" y2="330" gradientUnits="userSpaceOnUse">
<stop stop-color="white"/>
<stop offset="1" stop-color="#F0F0F0"/>
</linearGradient>
<linearGradient id="paint5_linear_30_330" x1="184.067" y1="0" x2="184.067" y2="330" gradientUnits="userSpaceOnUse">
<stop stop-color="#F44653"/>
<stop offset="1" stop-color="#EE2A39"/>
</linearGradient>
<linearGradient id="paint6_linear_30_330" x1="107.8" y1="0" x2="107.8" y2="330" gradientUnits="userSpaceOnUse">
<stop stop-color="#1035BB"/>
<stop offset="1" stop-color="#042396"/>
</linearGradient>
<linearGradient id="paint7_linear_30_330" x1="118.067" y1="0" x2="118.067" y2="330" gradientUnits="userSpaceOnUse">
<stop stop-color="white"/>
<stop offset="1" stop-color="#F0F0F0"/>
</linearGradient>
</defs>
</svg>
