<svg width="35" height="33" viewBox="0 0 35 33" fill="none" xmlns="http://www.w3.org/2000/svg">
<path d="M17.5 18.5588C16.4184 18.5588 15.3611 18.257 14.4617 17.6914C13.5624 17.1258 12.8615 16.322 12.4475 15.3815C12.0336 14.441 11.9253 13.4061 12.1363 12.4076C12.3473 11.4092 12.8682 10.4921 13.633 9.77225C14.3978 9.05242 15.3723 8.56221 16.4331 8.36361C17.4939 8.16501 18.5935 8.26694 19.5928 8.6565C20.5921 9.04607 21.4462 9.70579 22.0471 10.5522C22.648 11.3986 22.9688 12.3938 22.9688 13.4118C22.9671 14.7764 22.3904 16.0846 21.3652 17.0496C20.3399 18.0145 18.9499 18.5573 17.5 18.5588ZM17.5 10.3235C16.851 10.3235 16.2166 10.5047 15.677 10.844C15.1374 11.1833 14.7169 11.6656 14.4685 12.23C14.2202 12.7943 14.1552 13.4152 14.2818 14.0143C14.4084 14.6133 14.7209 15.1636 15.1798 15.5955C15.6387 16.0274 16.2234 16.3215 16.8599 16.4407C17.4964 16.5598 18.1561 16.4987 18.7557 16.2649C19.3553 16.0312 19.8677 15.6354 20.2283 15.1275C20.5888 14.6196 20.7813 14.0226 20.7813 13.4118C20.7803 12.593 20.4343 11.808 19.8191 11.229C19.204 10.6501 18.37 10.3244 17.5 10.3235Z" fill="#053677"/>
<path d="M17.5 30.9118L8.27368 20.6705C8.22129 20.6117 7.89284 20.2057 7.89284 20.2057C6.31664 18.2517 5.46507 15.8651 5.46876 13.4118C5.46876 10.4086 6.73634 7.52839 8.99263 5.40482C11.2489 3.28125 14.3091 2.08823 17.5 2.08823C20.6909 2.08823 23.7511 3.28125 26.0074 5.40482C28.2637 7.52839 29.5313 10.4086 29.5313 13.4118C29.5352 15.864 28.6842 18.2498 27.1088 20.2031L27.1072 20.2057C27.1072 20.2057 26.7791 20.6117 26.7302 20.6662L17.5 30.9118ZM9.63868 18.9654C9.63978 18.9662 9.89397 19.2827 9.95215 19.3509L17.5 27.7287L25.0578 19.339C25.1058 19.2822 25.3622 18.9634 25.3628 18.9626C26.6504 17.366 27.3463 15.4162 27.3438 13.4118C27.3438 10.9546 26.3067 8.5981 24.4606 6.86063C22.6145 5.12316 20.1107 4.14706 17.5 4.14706C14.8893 4.14706 12.3855 5.12316 10.5394 6.86063C8.69337 8.5981 7.65626 10.9546 7.65626 13.4118C7.65384 15.4172 8.35023 17.3681 9.63868 18.9654Z" fill="#053677"/>
</svg>
