<svg width="29" height="29" viewBox="0 0 29 29" fill="none" xmlns="http://www.w3.org/2000/svg">
<path d="M14.5 3.625C15.3962 3.625 16.2723 3.89075 17.0174 4.38865C17.7626 4.88655 18.3434 5.59423 18.6863 6.42221C19.0293 7.25019 19.119 8.16127 18.9442 9.04025C18.7693 9.91923 18.3378 10.7266 17.7041 11.3603C17.0704 11.994 16.263 12.4256 15.384 12.6004C14.505 12.7753 13.5939 12.6855 12.766 12.3426C11.938 11.9996 11.2303 11.4188 10.7324 10.6737C10.2345 9.92851 9.96875 9.05244 9.96875 8.15625C9.96875 6.95448 10.4462 5.80194 11.2959 4.95217C12.1457 4.1024 13.2982 3.625 14.5 3.625ZM14.5 1.8125C13.2453 1.8125 12.0188 2.18455 10.9756 2.88161C9.93238 3.57867 9.11929 4.56943 8.63914 5.7286C8.159 6.88777 8.03337 8.16328 8.27815 9.39385C8.52292 10.6244 9.1271 11.7548 10.0143 12.642C10.9015 13.5291 12.0318 14.1333 13.2624 14.3781C14.493 14.6229 15.7685 14.4972 16.9276 14.0171C18.0868 13.537 19.0776 12.7239 19.7746 11.6806C20.4717 10.6374 20.8438 9.41092 20.8438 8.15625C20.8438 6.47378 20.1754 4.86022 18.9857 3.67054C17.796 2.48085 16.1825 1.8125 14.5 1.8125Z" fill="#053677"/>
<path d="M23.5625 27.1875H21.75V22.6563C21.75 22.0612 21.6328 21.472 21.4051 20.9222C21.1774 20.3725 20.8436 19.8729 20.4228 19.4522C20.0021 19.0314 19.5025 18.6976 18.9528 18.4699C18.403 18.2422 17.8138 18.125 17.2187 18.125H11.7812C10.5795 18.125 9.42695 18.6024 8.57717 19.4522C7.7274 20.3019 7.25 21.4545 7.25 22.6563V27.1875H5.4375V22.6563C5.4375 20.9738 6.10586 19.3602 7.29554 18.1705C8.48523 16.9809 10.0988 16.3125 11.7812 16.3125H17.2187C18.9012 16.3125 20.5148 16.9809 21.7045 18.1705C22.8941 19.3602 23.5625 20.9738 23.5625 22.6563V27.1875Z" fill="#053677"/>
</svg>
