<svg width="35" height="35" viewBox="0 0 35 35" fill="none" xmlns="http://www.w3.org/2000/svg">
<path d="M31.7204 30.1721L23.4602 21.912C25.4451 19.5291 26.4348 16.4727 26.2236 13.3787C26.0124 10.2846 24.6165 7.3911 22.3262 5.30006C20.0359 3.20902 17.0277 2.08145 13.9272 2.1519C10.8268 2.22236 7.87285 3.48542 5.67994 5.67833C3.48702 7.87125 2.22396 10.8252 2.1535 13.9256C2.08305 17.0261 3.21062 20.0343 5.30166 22.3246C7.3927 24.6149 10.2862 26.0108 13.3803 26.222C16.4743 26.4332 19.5307 25.4435 21.9136 23.4586L30.1737 31.7187L31.7204 30.1721ZM4.3766 14.2187C4.3766 12.2718 4.95393 10.3687 6.03557 8.74985C7.11722 7.13106 8.6546 5.86936 10.4533 5.12431C12.252 4.37926 14.2313 4.18432 16.1408 4.56414C18.0503 4.94397 19.8043 5.88149 21.1809 7.25817C22.5576 8.63484 23.4951 10.3888 23.875 12.2983C24.2548 14.2078 24.0598 16.1871 23.3148 17.9858C22.5697 19.7845 21.308 21.3219 19.6892 22.4035C18.0704 23.4852 16.1673 24.0625 14.2204 24.0625C11.6105 24.0596 9.1084 23.0216 7.26297 21.1761C5.41753 19.3307 4.3795 16.8286 4.3766 14.2187Z" fill="white"/>
</svg>
